HIERARCHY
ROOT Hips
{
	OFFSET 0.000000 121.760803 0.000000
	CHANNELS 6 Xposition Yposition Zposition Xrotation Yrotation Zrotation 
	JOINT Spine
	{
		OFFSET 0.072000 7.257294 -0.789700
		CHANNELS 3 Xrotation Yrotation Zrotation
		JOINT Spine1
		{
			OFFSET 0.000000 12.508769 -0.658067
			CHANNELS 3 Xrotation Yrotation Zrotation
			JOINT Spine1_split
			{
				OFFSET 0.000000 12.508769 -0.658067
				CHANNELS 3 Xrotation Yrotation Zrotation
				JOINT Spine2
				{
					OFFSET 0.000000 12.508769 -0.658067
					CHANNELS 3 Xrotation Yrotation Zrotation
					JOINT Neck
					{
						OFFSET 0.000000 14.033295 7.520400
						CHANNELS 3 Xrotation Yrotation Zrotation
						JOINT Head
						{
							OFFSET 0.000000 8.198502 5.703100
							CHANNELS 3 Xrotation Yrotation Zrotation
							JOINT HeadTop_End
							{
								OFFSET 0.000000 17.760803 13.332701
								CHANNELS 3 Xrotation Yrotation Zrotation
								End Site
								{
									OFFSET 0.000000 0.000000 0.000000
								}
							}
						}
					}
					JOINT LeftShoulder
					{
						OFFSET 6.292450 5.785301 -0.669000
						CHANNELS 3 Xrotation Yrotation Zrotation
						JOINT LeftShoulder_split
						{
							OFFSET 6.292450 5.785301 -0.669000
							CHANNELS 3 Xrotation Yrotation Zrotation
							JOINT LeftArm
							{
								OFFSET 13.907140 -6.093903 1.965100
								CHANNELS 3 Xrotation Yrotation Zrotation
								JOINT LeftForeArm
								{
									OFFSET 34.140198 0.000000 0.000000
									CHANNELS 3 Xrotation Yrotation Zrotation
									JOINT LeftHand
									{
										OFFSET 40.960209 0.000000 0.000000
										CHANNELS 3 Xrotation Yrotation Zrotation
										JOINT LeftHandThumb1
										{
											OFFSET 10.006996 -7.170425 9.573125
											CHANNELS 3 Xrotation Yrotation Zrotation
											JOINT LeftHandThumb2
											{
												OFFSET 1.835007 -1.059448 1.059443
												CHANNELS 3 Xrotation Yrotation Zrotation
												JOINT LeftHandThumb3
												{
													OFFSET 2.112267 -1.219513 1.219518
													CHANNELS 3 Xrotation Yrotation Zrotation
													JOINT LeftHandThumb4
													{
														OFFSET 4.843811 -2.796570 2.796576
														CHANNELS 3 Xrotation Yrotation Zrotation
														End Site
														{
															OFFSET 0.000000 0.000000 0.000000
														}
													}
												}
											}
										}
										JOINT LeftHandIndex1
										{
											OFFSET 18.389847 -0.922348 4.596882
											CHANNELS 3 Xrotation Yrotation Zrotation
											JOINT LeftHandIndex2
											{
												OFFSET 4.711273 0.000000 0.000000
												CHANNELS 3 Xrotation Yrotation Zrotation
												JOINT LeftHandIndex3
												{
													OFFSET 2.886131 0.000000 0.000000
													CHANNELS 3 Xrotation Yrotation Zrotation
													JOINT LeftHandIndex4
													{
														OFFSET 6.145912 0.000000 0.000000
														CHANNELS 3 Xrotation Yrotation Zrotation
														End Site
														{
															OFFSET 0.000000 0.000000 0.000000
														}
													}
												}
											}
										}
										JOINT LeftHandMiddle1
										{
											OFFSET 18.013008 0.000000 0.000000
											CHANNELS 3 Xrotation Yrotation Zrotation
											JOINT LeftHandMiddle2
											{
												OFFSET 4.946693 0.000000 0.000000
												CHANNELS 3 Xrotation Yrotation Zrotation
												JOINT LeftHandMiddle3
												{
													OFFSET 3.342232 0.000000 0.000000
													CHANNELS 3 Xrotation Yrotation Zrotation
													JOINT LeftHandMiddle4
													{
														OFFSET 4.461754 0.000000 0.000000
														CHANNELS 3 Xrotation Yrotation Zrotation
														End Site
														{
															OFFSET 0.000000 0.000000 0.000000
														}
													}
												}
											}
										}
										JOINT LeftHandRing1
										{
											OFFSET 15.849892 -0.102921 -4.126150
											CHANNELS 3 Xrotation Yrotation Zrotation
											JOINT LeftHandRing2
											{
												OFFSET 3.527054 0.000000 0.000000
												CHANNELS 3 Xrotation Yrotation Zrotation
												JOINT LeftHandRing3
												{
													OFFSET 2.961098 0.000000 0.000000
													CHANNELS 3 Xrotation Yrotation Zrotation
													JOINT LeftHandRing4
													{
														OFFSET 4.927200 0.000000 0.000000
														CHANNELS 3 Xrotation Yrotation Zrotation
														End Site
														{
															OFFSET 0.000000 0.000000 0.000000
														}
													}
												}
											}
										}
										JOINT LeftHandPinky1
										{
											OFFSET 12.791824 -0.832031 -6.799156
											CHANNELS 3 Xrotation Yrotation Zrotation
											JOINT LeftHandPinky2
											{
												OFFSET 3.327133 0.000000 0.000000
												CHANNELS 3 Xrotation Yrotation Zrotation
												JOINT LeftHandPinky3
												{
													OFFSET 3.014900 0.000000 0.000000
													CHANNELS 3 Xrotation Yrotation Zrotation
													JOINT LeftHandPinky4
													{
														OFFSET 5.847786 0.000000 0.000000
														CHANNELS 3 Xrotation Yrotation Zrotation
														End Site
														{
															OFFSET 0.000000 0.000000 0.000000
														}
													}
												}
											}
										}
									}
								}
							}
						}
					}
					JOINT RightShoulder
					{
						OFFSET -6.292450 5.785301 -0.669000
						CHANNELS 3 Xrotation Yrotation Zrotation
						JOINT RightShoulder_split
						{
							OFFSET -6.292450 5.785301 -0.669000
							CHANNELS 3 Xrotation Yrotation Zrotation
							JOINT RightArm
							{
								OFFSET -13.907140 -6.093903 1.965100
								CHANNELS 3 Xrotation Yrotation Zrotation
								JOINT RightForeArm
								{
									OFFSET -34.140198 0.000000 0.000000
									CHANNELS 3 Xrotation Yrotation Zrotation
									JOINT RightHand
									{
										OFFSET -40.960209 0.000000 0.000000
										CHANNELS 3 Xrotation Yrotation Zrotation
										JOINT RightHandThumb1
										{
											OFFSET -10.007050 -7.170456 9.573117
											CHANNELS 3 Xrotation Yrotation Zrotation
											JOINT RightHandThumb2
											{
												OFFSET -1.835007 -1.059448 1.059443
												CHANNELS 3 Xrotation Yrotation Zrotation
												JOINT RightHandThumb3
												{
													OFFSET -2.112267 -1.219513 1.219518
													CHANNELS 3 Xrotation Yrotation Zrotation
													JOINT RightHandThumb4
													{
														OFFSET -4.843834 -2.796585 2.796590
														CHANNELS 3 Xrotation Yrotation Zrotation
														End Site
														{
															OFFSET 0.000000 0.000000 0.000000
														}
													}
												}
											}
										}
										JOINT RightHandIndex1
										{
											OFFSET -18.389870 -0.922424 4.596786
											CHANNELS 3 Xrotation Yrotation Zrotation
											JOINT RightHandIndex2
											{
												OFFSET -4.711273 0.000000 0.000000
												CHANNELS 3 Xrotation Yrotation Zrotation
												JOINT RightHandIndex3
												{
													OFFSET -2.886131 0.000000 0.000000
													CHANNELS 3 Xrotation Yrotation Zrotation
													JOINT RightHandIndex4
													{
														OFFSET -6.145920 0.000000 0.000000
														CHANNELS 3 Xrotation Yrotation Zrotation
														End Site
														{
															OFFSET 0.000000 0.000000 0.000000
														}
													}
												}
											}
										}
										JOINT RightHandMiddle1
										{
											OFFSET -18.013008 0.000000 0.000000
											CHANNELS 3 Xrotation Yrotation Zrotation
											JOINT RightHandMiddle2
											{
												OFFSET -4.946693 0.000000 0.000000
												CHANNELS 3 Xrotation Yrotation Zrotation
												JOINT RightHandMiddle3
												{
													OFFSET -3.342232 0.000000 0.000000
													CHANNELS 3 Xrotation Yrotation Zrotation
													JOINT RightHandMiddle4
													{
														OFFSET -4.461754 0.000000 0.000000
														CHANNELS 3 Xrotation Yrotation Zrotation
														End Site
														{
															OFFSET 0.000000 0.000000 0.000000
														}
													}
												}
											}
										}
										JOINT RightHandRing1
										{
											OFFSET -15.849876 -0.102936 -4.126237
											CHANNELS 3 Xrotation Yrotation Zrotation
											JOINT RightHandRing2
											{
												OFFSET -3.527054 0.000000 0.000000
												CHANNELS 3 Xrotation Yrotation Zrotation
												JOINT RightHandRing3
												{
													OFFSET -2.961098 0.000000 0.000000
													CHANNELS 3 Xrotation Yrotation Zrotation
													JOINT RightHandRing4
													{
														OFFSET -4.927200 0.000000 0.000000
														CHANNELS 3 Xrotation Yrotation Zrotation
														End Site
														{
															OFFSET 0.000000 0.000000 0.000000
														}
													}
												}
											}
										}
										JOINT RightHandPinky1
										{
											OFFSET -12.791786 -0.832077 -6.799222
											CHANNELS 3 Xrotation Yrotation Zrotation
											JOINT RightHandPinky2
											{
												OFFSET -3.327133 0.000000 0.000000
												CHANNELS 3 Xrotation Yrotation Zrotation
												JOINT RightHandPinky3
												{
													OFFSET -3.014900 0.000000 0.000000
													CHANNELS 3 Xrotation Yrotation Zrotation
													JOINT RightHandPinky4
													{
														OFFSET -5.847786 0.000000 0.000000
														CHANNELS 3 Xrotation Yrotation Zrotation
														End Site
														{
															OFFSET 0.000000 0.000000 0.000000
														}
													}
												}
											}
										}
									}
								}
							}
						}
					}
				}
			}
		}
	}
	JOINT LeftUpLeg
	{
		OFFSET 13.026900 -6.336304 -1.092800
		CHANNELS 3 Xrotation Yrotation Zrotation
		JOINT LeftLeg
		{
			OFFSET 0.524474 -46.096886 9.782700
			CHANNELS 3 Xrotation Yrotation Zrotation
			JOINT LeftFoot
			{
				OFFSET -0.524474 -53.427422 -12.948200
				CHANNELS 3 Xrotation Yrotation Zrotation
				JOINT LeftToeBase
				{
					OFFSET 0.192200 -14.009700 16.364100
					CHANNELS 3 Xrotation Yrotation Zrotation
					JOINT LeftToe_End
					{
						OFFSET -1.784700 -0.561700 9.474800
						CHANNELS 3 Xrotation Yrotation Zrotation
						End Site
						{
							OFFSET 0.000000 0.000000 0.000000
						}
					}
				}
			}
		}
	}
	JOINT RightUpLeg
	{
		OFFSET -12.883000 -6.336304 -1.092800
		CHANNELS 3 Xrotation Yrotation Zrotation
		JOINT RightLeg
		{
			OFFSET -0.524587 -46.096825 9.782800
			CHANNELS 3 Xrotation Yrotation Zrotation
			JOINT RightFoot
			{
				OFFSET 0.524587 -53.427383 -12.948300
				CHANNELS 3 Xrotation Yrotation Zrotation
				JOINT RightToeBase
				{
					OFFSET -0.192200 -14.009700 16.364100
					CHANNELS 3 Xrotation Yrotation Zrotation
					JOINT RightToe_End
					{
						OFFSET 1.784700 -0.561700 9.474800
						CHANNELS 3 Xrotation Yrotation Zrotation
						End Site
						{
							OFFSET 0.000000 0.000000 0.000000
						}
					}
				}
			}
		}
	}
}
MOTION
Frames: 4
Frame Time: 0.016667
-31.231047 99.584457 -13.756165 36.032724 4.894985 -2.894996 11.190167 1.050428 -0.071899 9.606825 1.909023 0.899772 0.000000 0.000000 0.000000 9.603336 2.011866 0.811204 -0.524616 -2.137135 -0.972091 -33.188258 -13.301679 4.013186 0.000002 0.000001 -0.000000 1.414468 -22.723536 -8.784364 0.000000 0.000000 0.000000 11.762074 -10.125573 -53.585375 0.000034 -69.152237 0.000031 9.634479 -7.078035 51.536479 -3.236116 1.418150 8.402908 5.654935 12.269288 1.647799 -0.143284 6.321513 3.004555 0.000001 -0.000000 -0.000000 -2.869258 -11.236240 -14.304756 0.189446 1.607165 -13.444122 0.538642 2.674364 -22.771625 -0.000003 0.000001 -0.000000 -1.015593 -2.322585 -17.138014 0.372025 2.236741 -18.883772 0.349718 2.170527 -18.304144 0.000000 0.000000 -0.000000 0.425064 2.386061 -20.199019 0.525209 2.642134 -22.481660 0.427924 2.393827 -20.267671 0.000004 0.000001 -0.000002 2.908283 9.324888 -19.277227 0.542566 -1.387842 -23.214322 0.352153 2.177848 -18.368112 0.000001 0.000000 0.000006 3.076665 26.719388 7.630349 0.000000 0.000000 0.000000 -0.858345 44.777890 17.984947 -0.000003 15.067918 0.000006 -12.088590 -18.720857 2.445784 11.401657 -6.367877 -1.590884 -8.836362 -28.068821 -6.744441 -1.218076 0.026850 -2.106280 -0.000000 -0.000003 -0.000000 1.584816 -10.189956 8.836249 0.110135 -1.235142 10.190471 0.104693 -1.204466 9.934521 0.000000 0.000001 -0.000001 0.067139 -0.965883 7.951950 0.067148 -0.965874 7.951942 0.067134 -0.965892 7.951935 0.000001 -0.000002 0.000006 -0.761373 3.643562 10.438910 0.104637 -1.204186 9.932221 -0.681572 -1.331628 9.841760 -0.000002 0.000001 0.000003 -2.759436 8.024679 17.655257 0.308089 -2.050675 17.086497 0.288069 -1.984379 16.517489 0.000002 -0.000000 -0.000002 -58.557780 -20.915808 24.430798 30.599562 9.674758 -2.814390 4.266464 7.657467 -28.995570 -1.113728 -0.000003 0.000002 -0.000000 0.000001 -0.000000 -65.889332 0.232451 -18.971779 47.333611 -6.202489 -0.947873 -13.127624 -3.400554 18.510368 -0.000105 0.000002 0.000002 0.000000 -0.000000 -0.000000 
-30.664856 98.843430 -13.834503 37.493442 4.729252 -2.890944 11.379723 1.250234 0.026236 9.817433 2.025246 0.983093 0.000000 0.000000 0.000000 9.811143 2.152150 0.886993 -0.715570 -2.246420 -1.135934 -34.116617 -13.747781 3.784627 0.000002 0.000000 0.000000 1.416197 -22.973082 -8.880213 0.000000 0.000000 0.000000 11.192770 -9.120338 -53.018780 0.000063 -70.505850 0.000044 10.038160 -7.077203 52.367132 -3.374861 1.231299 8.584180 5.793800 12.624825 1.716455 -0.109075 6.711009 3.041331 -0.000000 -0.000002 -0.000001 -2.849396 -11.834717 -13.679903 0.167886 1.514197 -12.652654 0.539130 2.675516 -22.781934 0.000000 -0.000001 0.000002 -1.107513 -2.724910 -16.827245 0.358593 2.197128 -18.536790 0.336375 2.129752 -17.948129 0.000003 -0.000000 0.000001 0.422354 2.378703 -20.134028 0.523078 2.637002 -22.435582 0.419808 2.371776 -20.072638 -0.000001 0.000001 0.000001 2.892614 9.303070 -19.220784 0.541225 -1.391003 -23.185712 0.338943 2.137685 -18.017375 0.000002 0.000000 -0.000001 3.187564 27.214279 7.729339 0.000000 0.000000 0.000000 -2.835462 44.048412 16.782897 0.000009 15.523318 0.000006 -11.553910 -18.245679 1.205174 11.420379 -6.347039 -1.613742 -8.885722 -28.126222 -6.728614 -1.266711 0.123332 -2.096320 0.000000 0.000001 0.000001 1.580428 -10.229640 8.766655 0.108811 -1.227703 10.128406 0.103352 -1.196858 9.871173 -0.000001 0.000001 -0.000002 0.064977 -0.950257 7.822441 0.064960 -0.950266 7.822424 0.064971 -0.950254 7.822445 -0.000000 -0.000001 0.000002 -0.755240 3.690474 10.276195 0.101181 -1.184318 9.766746 -0.689355 -1.310123 9.676083 -0.000001 0.000001 -0.000002 -2.755521 8.099320 17.520897 0.303171 -2.034587 16.948040 0.283179 -1.967879 16.376157 -0.000001 -0.000001 -0.000000 -61.747342 -19.995515 24.271357 32.497627 9.883984 -2.877065 3.694434 6.189895 -28.619369 -1.399273 -0.000003 -0.000001 -0.000000 0.000000 -0.000000 -68.002600 0.574814 -19.248416 48.142390 -5.913409 -1.225535 -13.223522 -3.504466 18.968275 -0.000072 -0.000003 0.000004 -0.000000 0.000000 -0.000000 
-30.055305 98.138847 -13.842789 39.097741 4.807343 -2.754912 11.468998 1.417167 0.084303 9.969255 2.124027 1.135354 0.000000 0.000000 0.000000 9.956438 2.298935 1.031303 -0.838457 -2.418144 -1.228871 -35.049006 -14.115563 3.169138 0.000003 -0.000000 0.000000 1.450541 -23.720940 -8.828586 0.000000 0.000000 0.000000 11.826642 -9.065752 -52.805606 0.000016 -71.719896 0.000002 10.805707 -6.917959 53.874896 -3.512176 1.046294 8.763081 5.931033 12.976928 1.783609 -0.075416 7.096625 3.077539 -0.000002 0.000001 -0.000000 -2.817151 -12.428203 -13.059479 0.147812 1.421853 -11.869174 0.539604 2.676640 -22.792136 0.000005 -0.000001 -0.000002 -1.194128 -3.124435 -16.519642 0.345531 2.157838 -18.193257 0.323399 2.089303 -17.595706 -0.000002 -0.000000 -0.000000 0.419691 2.371434 -20.069654 0.520980 2.631942 -22.389942 0.411863 2.349909 -19.879559 0.000001 0.000001 0.000000 2.877104 9.281349 -19.164886 0.539865 -1.394169 -23.157435 0.326117 2.097863 -17.670114 0.000002 0.000000 0.000000 3.294680 27.536621 7.886915 0.000000 0.000000 0.000000 -5.270271 43.242898 15.996346 -0.000008 15.853533 0.000006 -11.364507 -17.432034 -0.170943 11.427811 -6.338774 -1.622793 -8.905273 -28.148941 -6.722366 -1.285947 0.161514 -2.092360 -0.000000 0.000000 -0.000001 1.578676 -10.245324 8.739127 0.108275 -1.224776 10.103819 0.102845 -1.193857 9.846084 0.000003 -0.000001 0.000001 0.064137 -0.944074 7.771178 0.064134 -0.944068 7.771183 0.064118 -0.944048 7.771187 -0.000001 -0.000001 0.000002 -0.752763 3.709055 10.211778 0.099843 -1.176448 9.701254 -0.692428 -1.301615 9.610500 -0.000001 0.000000 -0.000002 -2.753883 8.128875 17.467705 0.301223 -2.028186 16.893257 0.281276 -1.961352 16.320226 -0.000001 0.000001 -0.000002 -65.058809 -19.024665 23.896648 34.206182 9.935559 -3.034879 3.252077 4.676923 -28.134106 -1.425599 -0.000007 -0.000001 0.000000 -0.000000 -0.000000 -70.172435 0.944451 -19.906771 48.930014 -5.559272 -1.416399 -13.358738 -3.610139 19.416988 -0.000088 -0.000005 -0.000008 0.000000 0.000000 -0.000000 
-29.395939 97.402405 -13.813316 40.722950 5.013590 -2.584950 11.513515 1.531114 0.156555 10.064962 2.170637 1.237803 0.000000 0.000000 0.000000 10.048248 2.372607 1.130299 -0.902478 -2.527067 -1.383378 -35.906571 -14.329187 2.536113 0.000002 -0.000000 0.000000 1.473629 -24.423858 -8.886954 0.000000 0.000000 0.000000 12.773707 -9.396224 -52.694168 0.000003 -72.757490 0.000021 11.913170 -6.670318 56.007985 -3.647175 0.864216 8.938400 6.065772 13.323439 1.848970 -0.042529 7.475889 3.112933 0.000000 -0.000000 0.000000 -2.773162 -13.012707 -12.447469 0.129297 1.330793 -11.098657 0.540068 2.677752 -22.802213 -0.000000 0.000000 0.000001 -1.275080 -3.518491 -16.217278 0.332925 2.119126 -17.855393 0.310875 2.049452 -17.249127 0.000003 -0.000001 -0.000000 0.417074 2.364273 -20.006346 0.518918 2.626918 -22.345116 0.404114 2.328390 -19.689663 -0.000001 0.000000 0.000000 2.861840 9.259787 -19.109971 0.538544 -1.397248 -23.129544 0.313740 2.058607 -17.328641 -0.000001 -0.000001 -0.000001 3.339813 27.785954 7.894900 0.000000 0.000000 0.000000 -7.494347 42.669005 15.410838 -0.000009 16.135770 0.000003 -11.314859 -17.019373 -1.634178 11.432225 -6.333876 -1.628203 -8.916923 -28.162513 -6.718627 -1.297461 0.184317 -2.090000 0.000000 -0.000003 -0.000001 1.577618 -10.254709 8.722678 0.107957 -1.223009 10.089148 0.102512 -1.192042 9.831102 0.000000 -0.000001 -0.000000 0.063618 -0.940388 7.740555 0.063611 -0.940348 7.740582 0.063616 -0.940389 7.740555 0.000001 0.000000 0.000000 -0.751273 3.720143 10.173325 0.099045 -1.171762 9.662127 -0.694255 -1.296515 9.571353 -0.000001 0.000001 -0.000001 -2.752874 8.146525 17.435953 0.300064 -2.024398 16.860512 0.280135 -1.957436 16.286827 0.000000 -0.000001 -0.000000 -68.471772 -17.822993 23.393476 35.901814 9.993366 -3.078137 2.754183 3.081235 -27.582117 -1.430670 -0.000000 0.000001 0.000000 0.000001 0.000000 -72.355397 1.300218 -20.767562 49.766654 -5.130681 -1.582127 -13.540615 -3.727116 19.874264 -0.000100 -0.000002 -0.000000 -0.000000 0.000000 0.000000 
